<svg width="60" height="25" fill="none" xmlns="http://www.w3.org/2000/svg"><path d="M53.727 3.342 49.741 6.11l-3.378-2.348V.963c0-.247.245-.447.545-.447h2.754l4.065 2.826ZM60 7.7l-2.285-1.587-3.987 2.767 3.568 2.477L60 13.236V7.7Zm-10.39 4.042-1.937 1.346a3.427 3.427 0 0 0-1.244 1.983l3.312 2.3 3.986-2.768-4.116-2.861Zm8.105 5.629-3.987 2.768 3.045 2.112h2.678a.611.611 0 0 0 .383-.13.41.41 0 0 0 .16-.315v-2.85l-2.28-1.585Z" fill="#fff"/><path d="m58.602 10.452-.007.005-12.239 8.503v5.54L60 15.021V7.7a3.4 3.4 0 0 1-.37 1.541 3.431 3.431 0 0 1-1.028 1.211ZM60 .87v2.89l-12.327 8.566c-.41.32-.742.728-.97 1.194a3.397 3.397 0 0 0-.347 1.495V7.701L56.708.51h2.775c.258.007.47.16.517.361ZM18.467.953v20.815a.442.442 0 0 1-.442.446h-2.837a.449.449 0 0 1-.44-.447V.953a.442.442 0 0 1 .44-.448h2.835a.45.45 0 0 1 .411.278.44.44 0 0 1 .033.17ZM31.074 19.101h-5.468a.442.442 0 0 1-.389-.353L25.215.943a.435.435 0 0 0-.44-.437h-2.839a.442.442 0 0 0-.44.437v20.836a.435.435 0 0 0 .44.437l9.14.005a.442.442 0 0 0 .44-.436V19.54a.433.433 0 0 0-.272-.407.444.444 0 0 0-.169-.033ZM12.486 21.57 6.742 11.19a.434.434 0 0 1 0-.421l5.33-9.624A.436.436 0 0 0 11.684.5H8.467a.448.448 0 0 0-.388.225L3.719 8.6V.941a.435.435 0 0 0-.44-.437H.44A.442.442 0 0 0 0 .941V21.78a.435.435 0 0 0 .44.437h2.834a.443.443 0 0 0 .44-.437v-4.804l-1.32-5.992 6.093 11.011a.439.439 0 0 0 .388.225h3.216a.443.443 0 0 0 .382-.214.435.435 0 0 0 .006-.435h.007ZM41.79.941v2.251a.435.435 0 0 1-.44.437h-5.494L37.6 4.852a.219.219 0 0 1 .094.179v16.753a.436.436 0 0 1-.44.438h-2.79a.442.442 0 0 1-.441-.438V4.07a.435.435 0 0 0-.397-.437h-3.259a.442.442 0 0 1-.441-.437V.94a.435.435 0 0 1 .44-.437h10.982a.443.443 0 0 1 .41.27c.022.053.033.11.033.167Z" fill="#fff"/></svg>