<svg xmlns="http://www.w3.org/2000/svg" xmlns:xlink="http://www.w3.org/1999/xlink" viewBox="0 0 477.31 54.38"><defs><radialGradient id="radial-gradient" cx="240.04" cy="27.07" r="605.53" gradientTransform="rotate(9.57 155.23 40.78)" gradientUnits="userSpaceOnUse"><stop offset="0" stop-color="#66c8ff"/><stop offset=".02" stop-color="#67c1ff"/><stop offset=".21" stop-color="#6b8dff"/><stop offset=".39" stop-color="#6f62ff"/><stop offset=".56" stop-color="#7140ff"/><stop offset=".72" stop-color="#7328ff"/><stop offset=".87" stop-color="#751aff"/><stop offset="1" stop-color="#7515ff"/></radialGradient><radialGradient id="radial-gradient-2" cx="244.25" cy="27.93" r="610.14" xlink:href="#radial-gradient"/><radialGradient id="radial-gradient-3" cx="244.82" cy="27.62" r="612.49" xlink:href="#radial-gradient"/><radialGradient id="radial-gradient-4" cx="242.21" cy="28.17" r="614.56" xlink:href="#radial-gradient"/><radialGradient id="radial-gradient-5" cx="240" cy="28.23" r="603.67" xlink:href="#radial-gradient"/><radialGradient id="radial-gradient-6" cx="239.99" cy="-10.38" r="614.58" gradientTransform="rotate(1.16 -1761.984 46.98)" xlink:href="#radial-gradient"/><radialGradient id="radial-gradient-7" cx="241" cy="-9.3" r="614.72" gradientTransform="rotate(1.18 -1758.947 34.138)" xlink:href="#radial-gradient"/><radialGradient id="radial-gradient-8" cx="241.76" cy="27.07" r="614.81" xlink:href="#radial-gradient"/><radialGradient id="radial-gradient-9" cx="231.63" cy="13.91" r="589.53" gradientTransform="rotate(.41 -1790.116 11.995)" xlink:href="#radial-gradient"/><radialGradient id="radial-gradient-10" cx="236.27" cy="-102.83" r="615.29" gradientTransform="rotate(4.03 -1804.478 41.859)" xlink:href="#radial-gradient"/><radialGradient id="radial-gradient-11" cx="236.96" cy="-99.16" r="614.88" gradientTransform="rotate(4.03 -1804.478 41.859)" xlink:href="#radial-gradient"/><radialGradient id="radial-gradient-12" cx="244.49" cy="27.61" r="614.21" xlink:href="#radial-gradient"/><radialGradient id="radial-gradient-13" cx="242.83" cy="28.22" r="614.42" xlink:href="#radial-gradient"/><radialGradient id="radial-gradient-14" cx="242.2" cy="28.3" r="614.96" xlink:href="#radial-gradient"/><radialGradient id="radial-gradient-15" cx="237.46" cy="27.2" r="615.07" xlink:href="#radial-gradient"/><radialGradient id="radial-gradient-16" cx="239.36" cy="29.97" r="615" xlink:href="#radial-gradient"/><radialGradient id="radial-gradient-17" cx="242.21" cy="28.2" r="614.25" xlink:href="#radial-gradient"/><radialGradient id="radial-gradient-18" cx="239.91" cy="23.51" r="606.15" xlink:href="#radial-gradient"/><radialGradient id="radial-gradient-19" cx="240.49" cy="29.38" r="586.45" gradientTransform="rotate(-1.91 190.718 42.184)" xlink:href="#radial-gradient"/><radialGradient id="radial-gradient-20" cx="241.94" cy="-1.3" r="558.34" gradientTransform="rotate(.92 -1585.54 15.844)" xlink:href="#radial-gradient"/><radialGradient id="radial-gradient-21" cx="230.86" cy="-171.49" r="606.23" gradientTransform="rotate(6.33 -1613.019 14.276)" xlink:href="#radial-gradient"/><radialGradient id="radial-gradient-22" cx="241.02" cy="26.37" r="487.69" xlink:href="#radial-gradient"/><radialGradient id="radial-gradient-23" cx="241.32" cy="28.5" r="471.52" xlink:href="#radial-gradient"/><radialGradient id="radial-gradient-24" cx="239.15" cy="29.74" r="613.15" xlink:href="#radial-gradient"/><radialGradient id="radial-gradient-25" cx="240.68" cy="28.02" r="593.4" xlink:href="#radial-gradient"/><radialGradient id="radial-gradient-26" cx="242.56" cy="28.94" r="612.23" xlink:href="#radial-gradient"/><radialGradient id="radial-gradient-27" cx="240.72" cy="120.53" r="614.74" gradientTransform="rotate(-2.95 -1500.596 28.203)" xlink:href="#radial-gradient"/><radialGradient id="radial-gradient-28" cx="242.22" cy="28.14" r="610.52" xlink:href="#radial-gradient"/><radialGradient id="radial-gradient-29" cx="240.25" cy="26.81" r="615.06" xlink:href="#radial-gradient"/><radialGradient id="radial-gradient-30" cx="234.68" cy="-149.25" r="614.02" gradientTransform="rotate(5.75 -1490.66 10.682)" xlink:href="#radial-gradient"/><radialGradient id="radial-gradient-31" cx="242.24" cy="28.35" r="614.35" xlink:href="#radial-gradient"/><radialGradient id="radial-gradient-32" cx="237.26" cy="122.13" r="611.66" gradientTransform="rotate(-3.04 -1446.803 41.559)" xlink:href="#radial-gradient"/><radialGradient id="radial-gradient-33" cx="242.24" cy="28.11" r="615.11" xlink:href="#radial-gradient"/><radialGradient id="radial-gradient-34" cx="242.26" cy="28.37" r="613.92" xlink:href="#radial-gradient"/><radialGradient id="radial-gradient-35" cx="242.23" cy="28.28" r="614.91" xlink:href="#radial-gradient"/><radialGradient id="radial-gradient-36" cx="238.7" cy="125.04" r="614.94" gradientTransform="rotate(-3.05 -1416.706 13.592)" xlink:href="#radial-gradient"/><radialGradient id="radial-gradient-37" cx="248.33" cy="26.87" r="614.89" xlink:href="#radial-gradient"/><radialGradient id="radial-gradient-38" cx="241.72" cy="27.83" r="615" gradientTransform="rotate(-1.83 436.44 24.82)" xlink:href="#radial-gradient"/><radialGradient id="radial-gradient-39" cx="242.3" cy="28.61" r="614.93" xlink:href="#radial-gradient"/><linearGradient id="linear-gradient" x1="246.92" y1="-125.77" x2="513.66" y2="140.97" gradientTransform="rotate(-.88 -1404.079 36.097)" gradientUnits="userSpaceOnUse"><stop offset="0" stop-color="#9ca9ff"/><stop offset="1" stop-color="#4393c7"/></linearGradient><linearGradient id="linear-gradient-2" x1="246.92" y1="-125.77" x2="513.66" y2="140.97" gradientTransform="rotate(-.88 -1404.079 36.097)" gradientUnits="userSpaceOnUse"><stop offset="0" stop-color="#66c8ff"/><stop offset="1" stop-color="#7515ff"/></linearGradient><style>.cls-44{fill:#ff2695}.cls-45{fill:#fff}</style></defs><g style="isolation:isolate"><g id="Layer_2" data-name="Layer 2"><g id="The_Logo" data-name="The Logo"><g id="moonsama_glitch_white" data-name="moonsama glitch white"><g style="mix-blend-mode:hard-light"><path d="M168.93 35.79q-16.22.32-32.48.73 4.65 3.28 9.36 6.49 11.56.48 23.11 1c0-2.71.01-5.46.01-8.22Z" style="fill:url(#radial-gradient)"/><path d="M126.76 40c0 1.74-.08 3.48-.11 5.22q11.63-.18 23.25-.3-4.67-3-9.28-6Z" style="fill:url(#radial-gradient-2)"/><path d="M138.52 36.79v-1.33a508.36 508.36 0 0 1-10.05-6.84h-1q-.12 6-.25 12.06 8.58-.67 17.18-1.33l-3.95-2.58Z" style="fill:url(#radial-gradient-3)"/><path d="m137.18 27.68-10.18.07q5 3.49 10 6.86Z" style="fill:url(#radial-gradient-4)"/><path d="m178.78 33.74-11.14.15-.18 8.34q-11.09.06-22.15.16c1.31.86 2.63 1.71 3.94 2.55q14.67-1.19 29.34-2.29c.06-2.97.13-5.94.19-8.91Z" style="fill:url(#radial-gradient-5)"/><path d="m48.49 40.16.15 6.23q6.44-.36 12.87-.68l-.15-6.22Z" style="fill:url(#radial-gradient-6)"/><path d="m48.88 27.15.32 13.19q6.42-.35 12.86-.66l-.32-12.81Z" style="fill:url(#radial-gradient-7)"/><path d="M31.94 38.55q6.48-6.44 13-12.55-13.08.16-26.14.31 6.55 6.29 13.14 12.24Z" style="fill:url(#radial-gradient-8)"/><path d="M30.31 20Q20.85 10.68 11.4.61L2.05 0q-.1 12-.23 23.94c4.18.06 8.35.13 12.53.18v-3.06l3.08 3.1q12.81.16 25.6.28l3.08-2.78v2.81l12.6.1.21-21.25-9.35-.48Q39.95 11.11 30.31 20Z" style="fill:url(#radial-gradient-9)"/><path d="M3 51.5q6.57-.31 13.13-.57c0-2.45 0-4.91.07-7.36q-6.56.21-13.11.44Z" style="fill:url(#radial-gradient-10)"/><path d="M4.05 30q-.12 7.08-.25 14.13l13.11-.31q.09-6.82.22-13.67C12.77 30.1 8.41 30 4.05 30Z" style="fill:url(#radial-gradient-11)"/><path d="M68.9 41.13c0 2.5 0 5 .08 7.49q25.81-1.07 51.63-1.82c0-2.56-.07-5.13-.1-7.69q-25.8.97-51.61 2.02Z" style="fill:url(#radial-gradient-12)"/><path d="M107.06 26.84c0 2.88.07 5.76.11 8.64q-13.44.29-26.86.6c0-2.92-.07-5.83-.1-8.75l-12.38.2q.06 5.82.13 11.62 25.8-1.08 51.61-2.06l-.09-7.35q-2.64-1.5-5.26-3Z" style="fill:url(#radial-gradient-13)"/><path d="m107.77 22.94 9.23.34c-3-1.76-6-3.54-8.92-5.37-.08 1.68-.21 3.36-.31 5.03Z" style="fill:url(#radial-gradient-14)"/><path d="m64.38 2.65-.12 21.47h12.38l.06-10.92 17.3.35q-8.44-5-16.73-10.41-6.42-.22-12.89-.49Z" style="fill:url(#radial-gradient-15)"/><path d="M117.06 5.78q-19.35-.56-38.7-1.31 8.28 5.46 16.73 10.45l9.53.2v5.25q4.57 2.56 9.2 5h3.15Z" style="fill:url(#radial-gradient-16)"/><path d="M137.71 13.9q13.42.27 26.86.48c-.07 2.9-.13 5.8-.2 8.7h12.39l.38-17.14q-25.81-.53-51.62-1.34-.19 9.27-.4 18.55h12.39q.09-4.64.2-9.25Z" style="fill:url(#radial-gradient-17)"/><path d="m196.66 23.2-12.91.05-.21 9.52 12.91-.23Z" style="fill:url(#radial-gradient-18)"/><path d="m196.63 38.33-12.9.67c0 2.76.07 5.53.1 8.3q6.45-.22 12.9-.42-.06-4.27-.1-8.55Z" style="fill:url(#radial-gradient-19)"/><path d="m236.44 24.05-.09-16.5-12.65-.06.09 16.71Z" style="fill:url(#radial-gradient-20)"/><path d="m195.94 22.93 3.06 2.41 18.53.53q-11.64-9.1-23.28-18.35L184.48 7l-1.62 17.86 12.87.39Z" style="fill:url(#radial-gradient-21)"/><path d="M236.14 35.58c.06-2.83.13-5.66.19-8.49l-12.65.07c0 1-.05 2-.07 3l-4.26-3-18.22.1 12.4 8.74Z" style="fill:url(#radial-gradient-22)"/><path d="m236.16 48.5.21-9.46-22.61.43 12.77 9Z" style="fill:url(#radial-gradient-23)"/><path d="m290 17.89.6-8.8q-24.44-.64-48.86-1.48-.57 8.13-1.12 16.25 24.59.48 49.18.88-18.12-2.62-36.23-5.19c.06-.93.13-1.87.19-2.8q18.16.59 36.24 1.14Z" style="fill:url(#radial-gradient-24)"/><path d="m292 34.65-12.65.26v1.68q-18.46-.27-36.94-.47-.09 4.5-.2 9 24.79.28 49.59.79Z" style="fill:url(#radial-gradient-25)"/><path d="M243 27v2.62q18.18 2.16 36.4 4.38v.86l12.6-.26c0-2.63.11-5.27.17-7.9q-24.56.19-49.17.3Z" style="fill:url(#radial-gradient-26)"/><path d="m324.16 22.43-15.35.94q-3.49 4.29-7 8.54l15.64-1.18q3.36-4.14 6.71-8.3Z" style="fill:url(#radial-gradient-27)"/><path d="M334.74 34c.84 1.07 1.69 2.13 2.54 3.2q-11.17-.42-22.34-.81l2.13-2.27-15.69.09-4.09 4.28c-.1 2.28-.21 4.55-.31 6.83q28.69 1.09 57.39 2.6c.1-2.39.21-4.79.31-7.18q-2.65-3.45-5.3-6.86Z" style="fill:url(#radial-gradient-28)"/><path d="m340.77 22.34-15 .17q3.17 3.75 6.31 7.53 7.32-.2 14.64-.42Z" style="fill:url(#radial-gradient-29)"/><path d="M325 20.24c.67.81 1.35 1.61 2 2.42l15-.08q-6.41-7.84-12.8-15.49h-7.63q-7.11 7.91-14.19 15.66l15.38-.06Z" style="fill:url(#radial-gradient-30)"/><path d="M382.38 40q5.79-4.7 11.57-9.52-10.74.4-21.48.76 4.95 4.35 9.91 8.76Z" style="fill:url(#radial-gradient-31)"/><path d="M356.35 46.67q6.33-.11 12.66-.18-.25-7.43-.49-14.84l-12.62 1Z" style="fill:url(#radial-gradient-32)"/><path d="M414 22.34q-13.68.24-27.36.45l-1.37 1.14-1.27-1.1q-13.71.21-27.43.39c-.05 2.5-.1 5-.16 7.51l12.66-.4c0-1.77.07-3.53.11-5.29 2 1.68 3.91 3.37 5.87 5.08q10.74-.37 21.48-.8c1.57-1.32 3.13-2.64 4.69-4 0 1.27-.05 2.53-.07 3.79q6.36-.25 12.72-.54Z" style="fill:url(#radial-gradient-33)"/><path d="m400.75 30.23-.33 17.22q6.34.27 12.71.58l.34-18.33q-6.36.3-12.72.53Z" style="fill:url(#radial-gradient-34)"/><path d="M382.56 21q-9.22-7.41-18.45-14.46c-3.14.15-6.29.29-9.43.42l.48 15.36q13.7-.59 27.4-1.32Z" style="fill:url(#radial-gradient-35)"/><path d="m408.89 4.62-9.41.71q-8.67 8.52-17.37 16.59l27.3-2c-.17-5.07-.35-10.19-.52-15.3Z" style="fill:url(#radial-gradient-36)"/><path d="m446.39 15.73 15-.42Q456 7.59 450.55.14l-7.63.25Q437 8.46 431 16.18l15.38-.4Z" style="fill:url(#radial-gradient-37)"/><path d="m445.3 20.91-15.38.31q-2.1 2.69-4.21 5.33l14.85.56c1.58-2.05 3.16-4.11 4.74-6.2Z" style="fill:url(#radial-gradient-38)"/><path d="m462.74 21.94-15-.37q2.13 3.36 4.26 6.78l15.39 1.3c-1.54-2.59-3.1-5.17-4.65-7.71Z" style="fill:url(#radial-gradient-39)"/><path d="m468 32.92-15.43-.76q3 4.52 6.07 9.14c-7.45-.33-20.77-.9-28.22-1.19 2.3-2.85 7.79-8.3 10.09-11.22l-14.85-.7c-3.24 4-3.81 10.74-7.05 14.61l-.36 7.86q28.72 1.55 57.44 3.72.18-4.38.35-8.77Q472 39.16 468 32.92Z" style="fill:url(#linear-gradient)"/><path d="m468 32.92-15.43-.76q3 4.52 6.07 9.14c-7.45-.33-17.58-3.47-25-3.77q3.45-4.26 6.9-8.64l-14.85-.7q-4.86 6-9.73 11.79c-.12 2.62 2.44 8.06 2.32 10.68q28.72 1.55 57.44 3.72.18-4.38.35-8.77Q472 39.16 468 32.92Z" style="fill:url(#linear-gradient-2)"/><path class="cls-44" d="m136.4 24.6-12.46-.6v1.71q6.14 4.47 12.37 8.76Z"/><path class="cls-44" d="M136.28 34.55v-.09q-6.28-4.29-12.37-8.76c0 3.28-.09 6.56-.13 9.84 4.57-.08 9.13-.18 13.7-.25l-1.07-.74ZM142.14 43.35l1.15.62Q151 43 158.8 42.15q-8.34.59-16.66 1.2ZM177.63 29.32l-12.57.17c-.07 3-.13 6.05-.2 9.09l12.58-.93c.06-2.78.12-5.55.19-8.33Z"/><path class="cls-44" d="M123.64 40.94c.08 2.77.15 5.52.23 8.28q15.19-.45 30.38-.72-7.12-4.22-14.16-8.59-8.22.5-16.45 1.03Z"/><path class="cls-44" d="M175.89 38.41c-4.15.23-8.31.45-12.46.69v.48l-10.26.1q-6.41.36-12.82.74 7 4.38 14.16 8.58 10.86-.2 21.7-.33ZM29.93 23.27Q19.91 13.15 9.87 2.19C6.58 2 3.3 1.84 0 1.65V23c20 .79 39.9 1.28 59.85 1.59L60 4.33 50.12 4Q40 13.29 29.93 23.27Z"/><path class="cls-44" d="M.11 23 .2 36.67l13.27.07q0-6.14-.1-12.29Q19.67 30.8 26 36.82h8.39Q40.66 30.41 47 24.24q0 6.38.11 12.76l13.34.12-.18-13.08Q30.18 23.5.11 23ZM46.68 39.15v11.48q6.65-.26 13.29-.46V39.38Z"/><path class="cls-44" d="m30.31 40.94 3.93-4.14H25.9ZM.45 52.52q6.62-.47 13.23-.88l-.09-13.46-13.21-.07q.03 7.22.07 14.41ZM105.85 28.51h9.4c-3.17-1.85-6.34-3.73-9.48-5.65.02 1.87.05 3.76.08 5.65ZM66 3.6l.24 18.91q6.24.06 12.49.09l-.12-8.52q11.28 0 22.54.07Q93.45 9.28 85.91 4 75.95 3.83 66 3.6Z"/><path class="cls-44" d="M120.5 6.28Q104.44 6 88.38 5.64q7.53 5.36 15.23 10.22h4.54v2.87c3.14 2 6.31 3.87 9.48 5.74h3.08q-.08-9.07-.21-18.19ZM105.67 28.44c0 3.53.08 7.05.11 10.58l-5.3.13h17.8l-.09-7.83c-1.49-.94-3-1.9-4.45-2.86Z"/><path class="cls-44" d="M120.19 22.29q-1.53 2.25-3 4.51l3-.09ZM64.38 30.91c.25 3.61.49 7.21.74 10.81l12.49-.6-.75-10.75Z"/><path class="cls-44" d="M98.77 40.4q-10.89.35-21.78.73v-.6l-12.49.07c.06 3.81.12 7.61.17 11.42q26-1.44 52.05-2.47l-.15-9.26ZM137.43 14.64q13.55.33 27.09.57c-.09 2.85-.18 5.71-.26 8.56l12.48.22.54-17.72q-26-.58-52.06-1.52-.25 9-.51 18.13 6.23.16 12.47.31.14-4.27.25-8.55ZM235.61 30.05l-.09-18.15h-12.75l.09 18.14ZM235 48.16v-8.8l-21.74.18 12 8.61Z"/><path class="cls-44" d="M235.55 39.53v-9.48l-12.75-.12v2.75l-3.8-2.79-18.84-.2q6.84 5 13.67 9.93ZM196.65 39.93q-.09-5.28-.16-10.56l-13 .09.15 10.76Z"/><path class="cls-44" d="M193.85 48.37c0-2.81-.09-5.61-.13-8.42l-13 .29q.06 4.21.13 8.41ZM195.65 23.51l3.27 2.49 19.2.11Q205.58 16.76 193 7.31l-9.89-.12-.56 18.64 13 .09c.05-.8.07-1.6.1-2.41ZM290.78 27.94v-1.81q-18.36-2.34-36.73-4.6c0-1 0-2 .07-3q18.29.2 36.57.35c.07-3.1.15-6.2.22-9.3q-24.66-.09-49.32-.38-.23 9-.44 18Z"/><path class="cls-44" d="M278.65 34.07v.69l12.75-.32-.09-6.6q-24.81.26-49.6.46v1.92q18.49 1.91 36.94 3.85ZM240.94 48.84q25-.27 50-.26l-.18-11.84-12.76.31v2q-18.62.12-37.24.31c.08 3.15.13 6.31.18 9.48ZM321.53 24.83l-15.25.17q-3.37 4.13-6.74 8.23l15.54-.42q3.23-3.95 6.45-7.98ZM349.72 37l-15 .36.89 1.1h-22.53l.49-.59-15.54.38c-.89 1-1.78 2.09-2.68 3.13l-.12 7.23q29 0 57.92.5.06-3.8.1-7.59c-1.16-1.52-2.35-3.06-3.53-4.52ZM340.41 24.2l-15.34.21q3.18 3.72 6.35 7.47 7.49-.22 15-.48-3.02-3.63-6.01-7.2Z"/><path class="cls-44" d="m322.43 19.84 4.27 5 15.3-.26q-7.95-9.49-15.88-18.73l-7.69.23q-7.68 9.65-15.35 19l15.25-.2q2.07-2.49 4.1-5.04ZM367.89 24.6v-1.41l1.64 1.4q14.56-.11 29.13-.27l1.54-1.46v1.44l12.8-.18-.32-21c-3.18.16-6.35.3-9.53.44q-9.57 9.38-19.15 18.16-9.84-8.56-19.73-16.72c-3.17.1-6.35.18-9.52.27q.19 9.69.39 19.41Z"/><path class="cls-44" d="m369.71 24.39-12.75.2q.06 4 .11 7.91c4.25-.15 8.5-.29 12.75-.45-.04-2.56-.07-5.11-.11-7.66ZM355.83 33.18q.21 5.81.4 11.6l12.75-.1q-.21-6.09-.41-12.17Z"/><path class="cls-44" d="M398.46 23.84q-14.56.29-29.13.53 4.29 3.64 8.57 7.36 6.33-.24 12.66-.51 3.95-3.64 7.9-7.38ZM390.21 34.17l-12.66.46q3.09 2.7 6.18 5.44 3.27-2.93 6.48-5.9ZM400.61 30.86l.18 13.84q6.4.11 12.82.25-.09-7.32-.19-14.64Z"/><path class="cls-44" d="m412.78 23.9-12.78.26.09 6.91 12.81-.61c-.07-2.19-.1-4.37-.12-6.56ZM435.13 37.17c1.11-1.39 2.22-2.8 3.32-4.21h-15.79q-1.74 2.16-3.49 4.29 11.13.18 22.22.32ZM459.4 38.54l.46.78q-8.12-.52-16.24-1-11.08-.15-22.21-.36l-1.89 2.3-.52 8.34q28.89 2.15 57.79 4.95l.51-9.35-3.08-5.42q-7.4-.14-14.82-.24ZM471.43 33.74h-14.8q1.44 2.37 2.87 4.77 7.42.09 14.83.21ZM440.27 23.25l-15.27.34q-2.25 3.24-4.5 6.42 7.88-.41 15.76-.87c1.34-1.95 2.68-3.91 4.01-5.89ZM465.18 22.27h-15.32l3.5 5.21q7.39-.28 14.78-.61-1.47-2.34-2.96-4.6Z"/><path class="cls-44" d="M445.1 18.36q2.08 2.84 4.19 5.73l15.31-.51q-8-11.38-15.9-22.1l-7.65.6q-7.55 11.77-15.14 22.86 7.62-.3 15.24-.56Z"/></g><path class="cls-45" d="M31.56 23.61q-9.72-9.85-19.45-20.22L2.59 3.1v47.35l12.76-.39v-25q8.12 8.36 16.21 16.38 8.07-8.33 16.14-16.32v24l12.84-.32V4.69L51 4.46q-9.71 9.38-19.44 19.15ZM65.9 48.73q26.61-.61 53.23-1V6Q92.51 5.58 65.9 5Zm12.77-32.56 27.69.26v20.8l-27.69.27ZM124.49 47.61q26.63-.4 53.24-.61V6.66q-26.62-.21-53.24-.61Zm12.77-30.95 27.7.16v20q-13.86.06-27.7.16ZM221.93 29.65q-14.52-11.46-29.05-23.06l-9.72-.06V47l12.76-.08V23.93Q210.46 35.41 225 46.76h9.73v-40h-12.77ZM252.77 17q18.3 0 36.61-.08V6.72q-24.69.17-49.38.18v21.89l36.89 4.65v2.93h-37.3v10.38q25 0 50.06.18V24.78l-36.88-4.54ZM318.37 6.29q-12.57 16.59-25.14 32.78V47q29 .21 58 .65v-8.19q-12.57-16.9-25.13-33.25ZM310.93 36q5.61-7.32 11.22-14.72 5.67 7.36 11.35 14.83ZM383.23 23.81q-9.74-9.19-19.46-18.08l-9.52.15v41.78q6.39.09 12.77.21V25.24q8.1 7.53 16.21 15.29 8.07-7.53 16.14-15.34v23.3l12.84.29v-44l-9.53.22q-9.68 9.58-19.45 18.81ZM448.08 3.78l-7.69.22q-12.57 18.65-25.13 36.23v8.63q29 .69 57.95 1.6V41.2q-12.57-19.34-25.13-37.42ZM433 37q5.6-8.06 11.21-16.34 5.67 8.2 11.34 16.62Z"/></g></g></g></g></svg>