<svg width="145" height="145" xmlns="http://www.w3.org/2000/svg"><linearGradient id="a" x1="138.302" y1="-63.94" x2="0" y2="205.228" gradientUnits="userSpaceOnUse"><stop offset=".206"/><stop offset=".37" stop-color="#541e7e"/><stop offset=".471" stop-color="#3f51d1"/><stop offset=".609" stop-color="#73afe3"/><stop offset=".801" stop-color="#90d7ff"/></linearGradient><path fill="url(#a)" d="M0 40C0 17.909 17.909 0 40 0h65c22.091 0 40 17.909 40 40v65c0 22.091-17.909 40-40 40H40c-22.091 0-40-17.909-40-40V40Z"/><path fill="#fff" d="M71.515 24.622c.193-1.103 1.777-1.103 1.97 0l5.78 32.989a10 10 0 0 0 8.124 8.124l32.989 5.78c1.103.193 1.103 1.777 0 1.97l-32.989 5.78a10 10 0 0 0-8.124 8.124l-5.78 32.989c-.193 1.103-1.777 1.103-1.97 0l-5.78-32.989a10 10 0 0 0-8.124-8.124l-32.99-5.78c-1.102-.193-1.102-1.777 0-1.97l32.99-5.78a10 10 0 0 0 8.124-8.124l5.78-32.99Z"/></svg>