<svg width="600" height="600" fill="none" xmlns="http://www.w3.org/2000/svg"><path fill="#FF0045" d="M171 342h96v107h-96zM336 342h95v107h-95z"/><g clip-path="url(#a)"><path d="M192.115 178.807a39.31 39.31 0 0 0-16.358 61.978 39.285 39.285 0 0 0 20.84 12.998c-.324 0-.659-.054-1.005-.054a9.157 9.157 0 0 0-9.018 9.291c.001.634.062 1.268.184 1.89a2.701 2.701 0 0 1-3.499 3.079 63.537 63.537 0 0 0-43.222 1.68 63.564 63.564 0 0 0-32.138 28.96 63.596 63.596 0 0 0-6.169 42.827 63.582 63.582 0 0 0 22.659 36.858h-.832a63.546 63.546 0 0 0-39.012 13.42 63.583 63.583 0 0 0-22.557 34.553 63.599 63.599 0 0 0 3.402 41.128 63.572 63.572 0 0 0 27.928 30.374l1.36.724c60.933 32.41 130.474 46.454 204.312 46.454 59.81 0 116.822-7.746 168.705-29.569.27-.118.551-.226.821-.356a433.911 433.911 0 0 0 35.845-17.134h.064a486.367 486.367 0 0 0 5.001-2.734 63.571 63.571 0 0 0 26.177-30.991 63.6 63.6 0 0 0 2.11-40.518 63.582 63.582 0 0 0-22.818-33.544 63.535 63.535 0 0 0-38.452-12.909c-.81 0-1.609 0-2.408.054h-.562c-.745 0-1.49.076-2.225.14a2.687 2.687 0 0 1-2.857-3.25 2.68 2.68 0 0 1 .827-1.427 24.845 24.845 0 0 0 2.732-3.004c.303-.4.659-.799.972-1.199a63.587 63.587 0 0 0 12.133-56.141 63.582 63.582 0 0 0-38.053-43.013l-.475-.194a63.364 63.364 0 0 0-22.971-4.322l-7.625.27a70.397 70.397 0 0 1-11.469-.702 39.363 39.363 0 0 0 18.554-25.053 39.852 39.852 0 0 0 1.015-8.934 39.14 39.14 0 0 0-4.741-18.733l-.27-.476a52.5 52.5 0 0 0-.842-1.437A437.473 437.473 0 0 0 265.889 55.173a4.796 4.796 0 0 0-5.973 5.628c1.772 7.271 2.97 12.738 4.191 19.662 6.847 38.893-19.991 74.933-63.288 94.801l-8.704 3.543Zm46.245 260.287a63.572 63.572 0 0 1-30.47-7.785 63.586 63.586 0 0 1-32.93-51.295 63.604 63.604 0 0 1 5.599-30.956 177.868 177.868 0 0 1 32.054 16.918 82.373 82.373 0 0 1 36.644 61.288 59.86 59.86 0 0 0 1.674 10.577 116.95 116.95 0 0 1-12.571 1.253Zm113.398 1.08a118.129 118.129 0 0 1-12.614-.702 58.721 58.721 0 0 0 1.21-10.631c1.155-24.988 20.131-48.464 40.391-63.135 15.034-10.9 20.768-14.876 24.84-18.031a63.608 63.608 0 0 1-1.635 60.939 63.566 63.566 0 0 1-52.138 31.56h-.054Z" fill="#4D0EA7"/></g><defs><clipPath id="a"><path fill="#fff" transform="translate(60 55)" d="M0 0h480v490H0z"/></clipPath></defs></svg>