<svg width="156" height="156" xmlns="http://www.w3.org/2000/svg"><path fill="#fff" d="M72.195 27.173c-3.937.743-10.456 1.953-13.983 3.668l.618-1.009a38.247 38.247 0 0 0-5.718 3.145l.272-1.22a36.222 36.222 0 0 0-11.237 9.902l-.51-1.834c-8.073 8.856-8.027 16.988-8.245 17.171l-1.182-1.769c-3.482 5.886-2.573 15.43-1.664 16.997l-3.019-3.74c-1.709 9.122-.618 18.601 2.873 25.083l-2.836-2.989c.654 5.84 2.31 8.426 2.418 8.581L26 96.592c1.427 11.277 12.828 19.427 12.828 19.427l-3.427-.284c2.727 2.879 8.51 5.345 8.51 5.345h-2.782C54.52 129.954 78.005 130 78.005 130s23.474 0 36.866-8.92h-2.782s5.764-2.466 8.51-5.345l-3.427.284s11.401-8.15 12.828-19.427l-3.991 2.567c.1-.155 1.754-2.75 2.409-8.58l-2.837 2.988c3.537-6.482 4.546-15.961 2.873-25.083l-3.045 3.74c.909-1.567 1.891-11.111-1.637-16.997l-1.182 1.77c-.218-.184-.172-8.316-8.246-17.2l-.509 1.834a36.226 36.226 0 0 0-11.219-9.901l.273 1.22a38.287 38.287 0 0 0-5.72-3.145l.592.971C92.488 28.264 81.814 26.33 75.677 26l-3.482 1.173ZM60.467 96.941c-.437 3.144-5.728 4.336-8.62.806-2.427-2.979.21-6.564.21-6.564-.837-2.704-6.819-3.108-6.819-3.108a19.491 19.491 0 0 1 9.092.55c3.791 1.32 6.718 4.154 6.137 8.316Zm27.811 20.261a31.465 31.465 0 0 1-9.255 6.417 2.703 2.703 0 0 1-2.046 0 31.58 31.58 0 0 1-9.255-6.417c-2.31-2.228-3.464-3.897-3.464-5.969.04-.91.272-1.801.682-2.612a17.84 17.84 0 0 1 4.317-6.038 17.657 17.657 0 0 1 6.384-3.735 7.595 7.595 0 0 1 4.718 0 17.657 17.657 0 0 1 6.384 3.735 17.84 17.84 0 0 1 4.317 6.038 6.4 6.4 0 0 1 .682 2.64c0 2.044-1.145 3.713-3.464 5.941Zm15.911-19.455c-2.892 3.53-8.183 2.338-8.62-.806-.581-4.162 2.346-6.995 6.165-8.315a19.491 19.491 0 0 1 9.092-.55s-5.983.403-6.819 3.107c-.064 0 2.573 3.576.182 6.564Z"/></svg>