<svg width="16" height="16" viewBox="0 0 16 16" fill="none" xmlns="http://www.w3.org/2000/svg">
<path d="M10.3332 5.33333C10.3332 5.88562 10.7809 6.33333 11.3332 6.33333C11.8855 6.33333 12.3332 5.88562 12.3332 5.33333H10.3332ZM11.6665 8C11.6665 8.55229 12.1142 9 12.6665 9C13.2188 9 13.6665 8.55229 13.6665 8H11.6665ZM13.6665 10.6667C13.6665 10.1144 13.2188 9.66667 12.6665 9.66667C12.1142 9.66667 11.6665 10.1144 11.6665 10.6667H13.6665ZM3.6665 4C3.6665 3.44772 3.21879 3 2.6665 3C2.11422 3 1.6665 3.44772 1.6665 4H3.6665ZM12.3332 5.33333V3.33333H10.3332V5.33333H12.3332ZM12.3332 3.33333C12.3332 2.41286 11.587 1.66667 10.6665 1.66667V3.66667C10.4824 3.66667 10.3332 3.51743 10.3332 3.33333H12.3332ZM10.6665 1.66667H3.99984V3.66667H10.6665V1.66667ZM3.99984 1.66667C2.71117 1.66667 1.6665 2.71134 1.6665 4H3.6665C3.6665 3.81591 3.81574 3.66667 3.99984 3.66667V1.66667ZM1.6665 4C1.6665 5.28867 2.71117 6.33333 3.99984 6.33333V4.33333C3.81574 4.33333 3.6665 4.1841 3.6665 4H1.6665ZM3.99984 6.33333H11.9998V4.33333H3.99984V6.33333ZM11.9998 6.33333C11.8157 6.33333 11.6665 6.1841 11.6665 6H13.6665C13.6665 5.07953 12.9203 4.33333 11.9998 4.33333V6.33333ZM11.6665 6V8H13.6665V6H11.6665ZM11.6665 10.6667V12.6667H13.6665V10.6667H11.6665ZM11.6665 12.6667C11.6665 12.4826 11.8157 12.3333 11.9998 12.3333V14.3333C12.9203 14.3333 13.6665 13.5871 13.6665 12.6667H11.6665ZM11.9998 12.3333H3.99984V14.3333H11.9998V12.3333ZM3.99984 12.3333C3.81574 12.3333 3.6665 12.1841 3.6665 12H1.6665C1.6665 13.2887 2.71117 14.3333 3.99984 14.3333V12.3333ZM3.6665 12V4H1.6665V12H3.6665Z" fill="#3BEFB8"/>
<path d="M13.3335 8V10.6667H10.6668C9.93045 10.6667 9.3335 10.0697 9.3335 9.33333C9.3335 8.59695 9.93045 8 10.6668 8H13.3335" stroke="#3BEFB8" stroke-width="2" stroke-linecap="round" stroke-linejoin="round"/>
</svg>
