<svg width="1359" height="1651" fill="none" xmlns="http://www.w3.org/2000/svg"><g style="mix-blend-mode:hard-light"><g filter="url(#a)"><path fill-rule="evenodd" clip-rule="evenodd" d="M670.349 127.173c40.901 15.86 57.246 63.879 78.672 102.151 20.982 37.479 45.882 75.171 44.621 118.081-1.266 43.076-21.327 84.927-51.49 115.687-28.026 28.58-71.545 30.202-107.938 46.894-38.462 17.641-70.145 60.148-112.036 54-41.817-6.137-66.917-49.618-91.653-83.893-21.175-29.343-35.965-62.586-39.993-98.529-3.692-32.945 4.989-65.313 18.229-95.691 12.385-28.414 33.234-50.581 55.1-72.55 24.557-24.67 48.136-50.04 80.27-63.447 40.258-16.797 85.518-38.485 126.218-22.703Z" fill="#0EEBA8"/></g><g filter="url(#b)"><path fill-rule="evenodd" clip-rule="evenodd" d="M1021.84 641.126c32.59 12.637 45.61 50.897 62.68 81.391 16.72 29.862 36.56 59.894 35.55 94.083-1.01 34.322-16.99 67.668-41.02 92.177-22.33 22.772-57.01 24.064-86.005 37.364-30.646 14.055-55.89 47.923-89.267 43.025-33.318-4.89-53.318-39.534-73.026-66.844-16.872-23.379-28.657-49.867-31.866-78.504-2.941-26.25 3.975-52.041 14.525-76.244 9.868-22.64 26.479-40.302 43.902-57.806 19.566-19.657 38.353-39.871 63.956-50.553 32.077-13.383 68.139-30.664 100.571-18.089Z" fill="url(#c)"/></g><g filter="url(#d)"><path fill-rule="evenodd" clip-rule="evenodd" d="M983.711 256.673c44.959 10.551 94.949 30.392 115.139 71.935 20.16 41.475-9.56 88.887-14.72 134.698-4.7 41.731 7.73 86.835-14.25 122.607-22.39 36.423-63.22 58.084-104.23 70.183-38.678 11.412-79.227 4.882-118.463-4.477-37.566-8.961-78.156-18.497-102.741-48.287-23.781-28.816-11.621-72.08-25.288-106.85-16.635-42.319-77.265-74.683-63.039-117.856 14.189-43.06 80.085-36.336 120.57-56.739 30.442-15.341 55.285-38.029 87.802-48.272 39.073-12.308 79.327-26.303 119.22-16.942Z" fill="#F84AA7"/></g></g><defs><filter id="a" x=".749" y="-267.231" width="1181.87" height="1220.75" filterUnits="userSpaceOnUse" color-interpolation-filters="sRGB"><feFlood flood-opacity="0" result="BackgroundImageFix"/><feBlend in="SourceGraphic" in2="BackgroundImageFix" result="shape"/><feGaussianBlur stdDeviation="194.464" result="effect1_foregroundBlur_77_4991"/></filter><filter id="b" x="409.277" y="247.835" width="1099.76" height="1130.74" filterUnits="userSpaceOnUse" color-interpolation-filters="sRGB"><feFlood flood-opacity="0" result="BackgroundImageFix"/><feBlend in="SourceGraphic" in2="BackgroundImageFix" result="shape"/><feGaussianBlur stdDeviation="194.464" result="effect1_foregroundBlur_77_4991"/></filter><filter id="d" x="265.047" y="-135.313" width="1229.66" height="1186.4" filterUnits="userSpaceOnUse" color-interpolation-filters="sRGB"><feFlood flood-opacity="0" result="BackgroundImageFix"/><feBlend in="SourceGraphic" in2="BackgroundImageFix" result="shape"/><feGaussianBlur stdDeviation="194.464" result="effect1_foregroundBlur_77_4991"/></filter><linearGradient id="c" x1="898.119" y1="905.5" x2="1405" y2="832.34" gradientUnits="userSpaceOnUse"><stop offset=".163" stop-color="#FFC914"/><stop offset="1" stop-color="#0EEBA8"/></linearGradient></defs></svg>