<svg width="144" height="144" viewBox="0 0 144 144" fill="none" xmlns="http://www.w3.org/2000/svg">
<g clip-path="url(#clip0_77_1808)" opacity="0.2">
<path d="M91.7204 64.0189C98.057 71.2835 96.3345 82.9283 87.873 90.0284C79.4115 97.1284 67.4153 96.995 61.0786 89.7304C54.742 82.4658 47.8594 60.9557 56.3209 53.8557C64.7824 46.7556 85.3838 56.7543 91.7204 64.0189Z" fill="white"/>
<path d="M19.7204 -7.98108C26.057 -0.71649 24.3345 10.9283 15.873 18.0284C7.4115 25.1284 -4.58475 24.995 -10.9214 17.7304C-17.258 10.4658 -24.1406 -11.0443 -15.6791 -18.1443C-7.21762 -25.2444 13.3838 -15.2457 19.7204 -7.98108Z" fill="white"/>
<path d="M163.72 -7.98108C170.057 -0.71649 168.334 10.9283 159.873 18.0284C151.412 25.1284 139.415 24.995 133.079 17.7304C126.742 10.4658 119.859 -11.0443 128.321 -18.1443C136.782 -25.2444 157.384 -15.2457 163.72 -7.98108Z" fill="white"/>
<path d="M163.72 136.019C170.057 143.284 168.334 154.928 159.873 162.028C151.412 169.128 139.415 168.995 133.079 161.73C126.742 154.466 119.859 132.956 128.321 125.856C136.782 118.756 157.384 128.754 163.72 136.019Z" fill="white"/>
<path d="M19.7204 136.019C26.057 143.284 24.3345 154.928 15.873 162.028C7.4115 169.128 -4.58475 168.995 -10.9214 161.73C-17.258 154.466 -24.1406 132.956 -15.6791 125.856C-7.21762 118.756 13.3838 128.754 19.7204 136.019Z" fill="white"/>
</g>
<defs>
<clipPath id="clip0_77_1808">
<rect width="144" height="144" fill="white"/>
</clipPath>
</defs>
</svg>
